<?xml version="1.0" standalone="no"?>
<!DOCTYPE svg PUBLIC "-//W3C//DTD SVG 20010904//EN"
 "http://www.w3.org/TR/2001/REC-SVG-20010904/DTD/svg10.dtd">
<svg version="1.0" xmlns="http://www.w3.org/2000/svg"
 width="1262.000000pt" height="977.000000pt" viewBox="0 0 1262.000000 977.000000"
 preserveAspectRatio="xMidYMid meet">

<g transform="translate(0.000000,977.000000) scale(0.100000,-0.100000)" stroke="none">
<path d="M5850 9709 c-86 -8 -263 -29 -425 -49 -50 -7 -183 -32 -370 -70 -129
-26 -506 -139 -600 -179 -11 -5 -60 -25 -110 -46 -124 -50 -113 -45 -275 -124
-434 -212 -820 -474 -1164 -791 -101 -93 -274 -268 -350 -355 -101 -115 -264
-335 -341 -459 -82 -132 -95 -148 -112 -141 -9 3 -50 12 -92 21 -393 78 -677
195 -1026 422 -193 126 -333 242 -531 438 -154 153 -199 183 -268 184 -53 0
-96 -46 -113 -121 -18 -77 -16 -373 2 -474 35 -189 82 -338 162 -505 57 -120
63 -131 156 -271 31 -47 57 -91 57 -96 0 -6 -17 -13 -38 -17 -54 -8 -103 -44
-118 -86 -17 -49 -17 -156 1 -235 56 -238 196 -474 417 -702 55 -55 96 -103
91 -106 -4 -3 -28 -8 -53 -12 -107 -16 -160 -55 -160 -119 0 -63 54 -213 112
-309 136 -225 354 -424 590 -538 27 -13 48 -28 48 -34 0 -6 -21 -21 -48 -33
-99 -45 -144 -114 -127 -194 17 -78 98 -203 196 -300 35 -35 37 -41 43 -120 9
-108 35 -289 62 -423 107 -542 342 -1108 687 -1661 68 -107 225 -321 313 -424
216 -253 513 -542 702 -683 31 -23 59 -44 62 -48 19 -22 322 -230 385 -265 11
-6 54 -31 95 -56 106 -63 201 -114 305 -165 50 -24 101 -50 115 -57 111 -61
501 -205 765 -284 186 -56 428 -104 710 -142 175 -23 560 -33 810 -21 132 6
267 16 300 21 33 4 98 14 145 20 152 20 263 40 375 66 61 13 124 27 140 30 64
13 471 140 520 164 11 5 54 23 95 39 267 104 598 282 885 474 415 278 826 667
1122 1060 114 153 284 406 356 533 90 159 224 432 286 584 35 85 69 169 77
185 7 17 16 41 20 55 4 14 29 49 56 79 27 30 61 70 76 90 15 20 29 38 32 41 6
5 99 132 138 187 12 18 22 36 22 40 1 4 11 21 24 37 23 27 27 29 78 23 85 -11
246 -75 254 -102 2 -6 -21 -25 -52 -43 -129 -79 -146 -224 -34 -299 43 -30
132 -32 174 -4 60 40 91 131 66 191 -7 17 -10 33 -7 37 4 3 38 -20 77 -51 l71
-57 -22 -37 c-12 -20 -27 -44 -34 -52 -26 -36 -45 -94 -45 -143 0 -93 72 -167
164 -167 54 0 90 16 127 57 40 43 55 94 41 139 -6 21 -9 40 -7 42 2 3 34 -7
69 -22 117 -46 261 -44 359 6 51 26 120 96 147 148 110 215 30 494 -169 592
-38 19 -63 23 -141 23 -107 0 -162 -20 -233 -82 l-37 -33 -59 49 c-33 26 -69
55 -80 63 -22 15 -21 16 38 75 46 47 61 69 68 104 19 93 -20 153 -116 178 -78
20 -175 -13 -211 -72 -23 -36 -25 -74 -8 -112 6 -14 9 -28 5 -31 -3 -3 -36 3
-74 15 -37 11 -120 34 -183 50 -165 43 -193 55 -207 82 -6 13 -19 41 -30 62
-10 21 -40 66 -68 100 l-50 62 3 310 c4 305 -2 429 -34 680 -51 414 -166 861
-308 1200 -7 17 -19 46 -26 65 -41 109 -241 498 -325 630 -125 197 -263 394
-344 489 -25 30 -55 66 -66 81 -75 99 -336 370 -459 476 -390 334 -694 539
-1081 728 -217 106 -229 112 -345 156 -47 18 -94 36 -105 40 -86 36 -316 110
-455 147 -131 34 -147 38 -300 68 -222 44 -344 61 -559 80 -179 16 -545 18
-701 4z m680 -339 c450 -35 772 -99 1155 -231 856 -294 1628 -885 2154 -1649
278 -403 497 -857 611 -1265 129 -460 185 -880 178 -1347 -4 -319 4 -302 -133
-269 -107 26 -130 24 -219 -21 -44 -22 -67 -28 -90 -24 -17 4 -51 10 -76 14
-25 5 -58 15 -75 23 -28 13 -30 19 -37 84 -10 108 -36 250 -58 312 -54 155
-195 295 -360 360 -120 47 -162 55 -360 63 -107 5 -213 13 -235 18 -170 43
-186 40 -221 -31 -11 -24 -38 -54 -63 -72 -41 -29 -47 -30 -144 -30 -79 0
-118 5 -174 23 -40 13 -75 28 -78 33 -5 8 18 51 144 269 14 25 32 56 38 70 7
14 21 39 31 55 25 40 227 395 265 465 54 100 197 351 326 573 69 120 131 225
136 235 10 17 73 130 107 190 19 35 24 96 9 134 -4 13 -17 50 -27 83 -35 115
-87 173 -143 160 -37 -8 -69 -44 -117 -133 -20 -37 -47 -83 -59 -102 -18 -28
-185 -323 -272 -480 -11 -19 -51 -89 -88 -155 -72 -126 -102 -181 -155 -280
-18 -33 -47 -85 -65 -115 -18 -30 -94 -165 -170 -300 -76 -135 -153 -259 -171
-277 -39 -38 -87 -53 -172 -53 -80 0 -152 26 -250 88 -157 100 -280 155 -442
196 -55 13 -55 14 -55 51 l0 38 64 18 c97 28 137 58 155 120 17 55 11 115 -35
334 -42 206 -39 232 50 415 43 86 91 218 91 247 0 6 19 22 43 36 58 35 81 53
147 117 116 112 160 220 160 390 -1 161 -36 279 -120 397 -118 170 -304 268
-543 289 l-78 6 -62 65 c-79 84 -143 131 -246 183 -279 140 -666 210 -992 181
-368 -33 -586 -106 -854 -284 -118 -78 -164 -116 -254 -207 -219 -222 -366
-514 -416 -825 -20 -129 -20 -425 1 -546 8 -50 14 -92 12 -94 -2 -1 -35 -25
-74 -53 -210 -148 -316 -352 -316 -607 0 -123 27 -244 78 -349 19 -38 34 -74
33 -80 0 -6 -25 -30 -55 -54 -30 -24 -69 -63 -87 -87 -17 -24 -37 -44 -44 -45
-27 -1 -122 193 -162 330 -40 140 -48 185 -67 385 -14 158 -45 337 -64 374 -4
9 -22 45 -40 81 -93 189 -258 329 -525 445 -22 9 -49 21 -60 26 -38 17 -280
88 -363 106 -95 21 -100 29 -52 96 198 276 260 349 476 563 413 410 885 738
1384 961 147 66 379 154 465 176 11 3 67 18 125 35 58 16 126 34 153 41 26 6
66 16 90 21 78 19 191 41 262 49 124 16 359 41 410 44 123 8 552 6 665 -3z
m-315 -684 c188 -29 327 -71 473 -143 126 -62 197 -116 277 -212 l67 -80 69 6
c142 12 263 -34 368 -140 155 -157 197 -363 109 -530 -33 -61 -85 -114 -99
-100 -5 5 -11 56 -15 113 -7 114 -36 254 -64 310 -30 59 -79 113 -133 148 -68
43 -153 44 -101 1 27 -22 54 -86 54 -128 0 -99 -149 -268 -305 -348 -50 -25
-155 -56 -163 -48 -3 3 2 18 12 33 57 88 158 332 136 332 -5 0 -22 -17 -37
-37 -37 -50 -159 -195 -175 -208 -58 -46 -126 -103 -143 -118 -31 -29 -182
-116 -239 -139 -145 -58 -302 -99 -486 -128 -179 -28 -365 -61 -369 -65 -28
-29 243 -82 373 -73 l51 3 -1 -38 c-2 -70 -83 -129 -219 -161 -38 -9 -153 -25
-255 -36 -232 -26 -303 -40 -386 -79 -115 -54 -190 -122 -233 -211 -22 -47
-26 -68 -25 -145 0 -49 5 -106 11 -125 68 -221 90 -344 73 -415 -5 -22 -7 -41
-4 -44 9 -9 57 45 79 89 40 80 47 140 34 281 -10 101 -10 138 0 183 21 96 86
172 162 191 25 6 26 5 37 -72 7 -43 26 -121 42 -173 16 -52 32 -115 36 -140 7
-55 -27 -227 -62 -314 -52 -130 -152 -244 -258 -295 -85 -41 -119 -50 -361
-92 -83 -14 -165 -42 -220 -74 -47 -28 -132 -112 -122 -121 4 -4 48 5 100 20
139 39 377 63 377 37 0 -10 -86 -69 -145 -99 -22 -11 -134 -43 -249 -72 -115
-28 -224 -59 -242 -67 -51 -25 -60 -15 -79 89 -40 225 21 322 325 517 161 103
221 183 250 333 15 75 4 152 -31 218 -48 91 -66 91 -61 -1 5 -81 -16 -171 -54
-231 -30 -47 -93 -118 -105 -118 -31 0 -98 92 -128 176 -30 85 -30 235 1 324
49 146 145 257 282 326 42 20 85 48 97 60 19 20 20 26 9 56 -22 60 -32 151
-37 338 -6 202 3 291 44 455 65 260 201 489 386 643 243 204 503 316 822 352
101 11 332 4 450 -14z m-5705 -716 c153 -139 367 -291 540 -383 268 -141 668
-279 1125 -387 355 -84 576 -155 735 -235 191 -97 325 -245 395 -437 11 -28
19 -102 25 -213 8 -169 29 -319 54 -399 7 -22 19 -61 26 -86 39 -130 142 -312
232 -407 l51 -54 -1 -102 c-2 -101 10 -167 40 -217 12 -20 10 -24 -21 -49
-109 -85 -247 -211 -316 -287 -44 -49 -98 -109 -121 -134 -71 -78 -216 -278
-338 -465 -65 -99 -132 -201 -149 -228 -35 -52 -59 -63 -163 -74 -115 -11
-243 26 -361 104 -46 30 -69 63 -45 63 7 0 73 52 137 108 53 46 208 185 250
224 22 20 51 45 65 57 23 19 23 20 5 21 -11 0 -36 -5 -55 -10 -90 -27 -262
-40 -394 -29 -340 26 -525 104 -760 321 l-51 47 30 11 c17 6 89 22 160 36 201
37 347 76 485 129 115 44 280 125 280 137 0 5 -23 5 -52 1 -135 -20 -444 0
-558 37 -14 4 -59 18 -100 31 -104 32 -323 145 -412 212 -151 114 -268 249
-327 380 -27 58 -22 81 12 68 94 -36 508 -91 683 -91 129 0 412 37 451 59 22
12 8 18 -57 24 -65 6 -278 52 -395 86 -515 148 -880 441 -999 802 -25 77 -44
179 -32 179 3 0 57 -20 118 -44 205 -80 440 -144 647 -177 130 -21 467 -37
515 -25 37 9 25 22 -26 29 -92 13 -330 100 -498 183 -112 55 -301 173 -398
248 -247 189 -443 452 -534 713 -28 83 -72 319 -61 336 5 9 102 -58 163 -113z
m6777 -441 c14 -50 26 -129 30 -194 6 -120 -6 -183 -52 -275 -80 -157 -94
-330 -46 -570 5 -25 16 -81 25 -125 31 -153 34 -149 -150 -155 -126 -4 -148
-8 -158 -23 -14 -21 9 -66 41 -82 43 -22 53 -37 53 -81 l0 -43 -68 6 c-54 4
-83 1 -138 -16 -73 -24 -112 -46 -100 -58 4 -4 41 -10 83 -14 69 -5 79 -9 105
-38 54 -60 25 -131 -54 -131 -22 0 -40 -5 -42 -12 -2 -7 -9 -44 -16 -83 -15
-87 -43 -139 -89 -166 -30 -18 -53 -21 -141 -21 -196 -1 -358 71 -620 276
-112 87 -205 193 -238 269 -7 17 -17 25 -23 21 -27 -16 21 -268 72 -383 45
-101 84 -178 111 -217 15 -23 28 -47 28 -54 0 -7 -14 -32 -30 -57 -58 -85 -88
-167 -115 -305 -15 -80 -34 -241 -35 -295 0 -20 -5 -23 -37 -23 -131 1 -417
112 -598 233 -110 74 -285 228 -285 253 0 6 35 37 78 69 42 32 127 108 187
169 224 226 335 451 335 677 0 74 5 81 66 96 47 12 149 76 158 99 9 25 0 31
-55 38 -143 19 -228 117 -245 280 -8 77 -21 70 170 91 205 23 264 39 348 94
40 26 92 69 116 96 53 60 117 175 133 238 6 27 17 50 23 52 6 1 40 11 76 20
191 52 243 73 342 138 49 33 62 37 121 37 189 0 436 100 557 224 19 20 39 35
44 33 6 -2 20 -41 33 -88z m1867 -343 c7 -41 3 -52 -60 -163 -36 -65 -105
-188 -152 -273 -91 -166 -197 -355 -212 -380 -6 -8 -19 -33 -31 -55 -12 -22
-45 -80 -74 -130 -71 -122 -205 -357 -245 -430 -18 -33 -42 -73 -52 -90 -10
-16 -21 -37 -25 -45 -4 -8 -53 -95 -110 -194 -57 -98 -103 -180 -103 -183 0
-3 -8 -17 -18 -31 -11 -15 -32 -52 -49 -82 -47 -86 -73 -131 -373 -650 -113
-196 -129 -224 -222 -390 -33 -57 -83 -145 -112 -195 -30 -49 -63 -106 -74
-125 -78 -137 -115 -202 -212 -370 -95 -166 -158 -276 -182 -319 -124 -224
-134 -234 -185 -193 l-21 17 44 75 c24 41 49 86 55 100 6 14 16 32 23 40 8 8
25 35 38 60 14 25 34 61 45 80 12 19 45 78 75 130 30 52 66 114 81 137 15 24
27 45 27 48 0 3 40 74 89 158 49 83 101 175 117 203 172 302 319 560 374 654
37 63 76 131 87 150 39 69 221 387 278 485 117 202 617 1073 654 1140 9 17 24
41 32 55 9 14 79 135 155 269 160 280 146 257 243 423 41 70 78 125 82 123 4
-3 10 -25 13 -49z m-1918 -1352 c72 -24 267 -119 304 -147 48 -37 179 -99 278
-132 95 -31 108 -47 90 -112 -14 -51 -52 -124 -74 -145 -23 -20 -84 -32 -113
-23 -15 4 -23 18 -27 47 -12 69 -61 95 -122 64 -47 -25 -74 -61 -74 -101 0
-65 65 -113 185 -135 37 -7 70 -16 73 -21 2 -5 -3 -23 -11 -40 -15 -29 -20
-31 -53 -26 -21 4 -71 16 -112 27 -78 23 -203 54 -256 65 -23 4 -36 1 -49 -11
-22 -23 -16 -26 120 -58 200 -48 280 -69 289 -77 15 -14 -11 -59 -34 -59 -11
0 -53 9 -93 19 -148 39 -307 65 -319 53 -8 -8 -8 -15 -2 -20 5 -5 88 -28 184
-51 96 -24 183 -45 193 -48 20 -5 22 -22 4 -47 -15 -21 -4 -22 -315 45 -78 17
-106 19 -115 10 -17 -17 1 -29 69 -47 32 -8 93 -24 134 -35 41 -11 95 -26 119
-32 25 -7 46 -17 48 -23 2 -5 -19 -47 -47 -93 -27 -45 -50 -87 -50 -93 0 -7
-20 -8 -57 -4 -183 21 -233 18 -320 -21 -71 -31 -104 -129 -66 -194 32 -53
126 -78 165 -42 22 20 24 81 3 109 -31 41 -21 47 68 39 81 -7 117 -18 117 -34
0 -5 -26 -53 -59 -107 -32 -55 -72 -124 -89 -154 l-30 -55 -113 -6 c-63 -3
-141 -12 -174 -19 -33 -6 -78 -15 -100 -20 -22 -4 -78 -16 -125 -26 -59 -13
-127 -18 -225 -18 -126 0 -147 3 -214 27 -217 77 -361 275 -361 493 0 71 30
201 64 277 42 97 152 227 192 227 49 0 389 -79 498 -115 144 -48 352 -98 376
-90 17 6 232 376 234 403 1 14 -12 19 -69 26 -59 8 -82 6 -155 -12 -47 -12
-106 -22 -131 -22 -40 0 -138 23 -163 37 -4 3 20 20 54 39 94 50 138 111 160
224 9 46 18 61 55 95 35 31 51 56 70 109 26 75 49 106 75 106 10 0 53 -12 96
-26z m1904 -579 c220 -1 227 -1 308 -29 86 -29 207 -102 254 -152 59 -64 103
-199 122 -371 4 -45 3 -53 -12 -53 -14 0 -190 46 -307 80 -16 5 -73 21 -125
35 -52 14 -108 30 -125 35 -16 4 -79 22 -140 39 -60 17 -132 38 -160 46 -27 8
-90 26 -140 41 -49 14 -103 30 -120 35 -47 15 -278 77 -412 112 -97 25 -123
35 -123 49 0 9 4 19 9 22 4 3 21 31 37 62 32 64 20 63 169 10 210 -74 326 -68
439 23 33 26 45 31 70 25 17 -4 132 -8 256 -9z m-4492 -244 c31 -17 113 -75
182 -131 69 -56 161 -125 205 -155 108 -71 286 -158 402 -195 90 -29 228 -54
244 -44 18 11 39 -10 39 -38 0 -42 29 -237 39 -268 5 -14 19 -59 31 -100 42
-141 121 -269 232 -376 124 -120 258 -192 438 -239 36 -9 81 -20 100 -25 20
-5 75 -13 123 -16 54 -4 87 -11 87 -18 0 -6 -35 -72 -78 -146 -137 -235 -172
-295 -181 -308 -7 -11 -22 -12 -82 -3 -233 34 -499 33 -622 -4 -48 -14 -241
-108 -307 -150 -34 -21 -180 -93 -270 -133 -136 -60 -276 -77 -397 -48 -32 8
-69 17 -83 20 -56 13 -56 18 -2 112 85 150 131 292 158 484 17 125 19 475 3
552 -12 58 -55 210 -69 246 -16 38 -32 26 -25 -20 26 -194 1 -537 -51 -710
-32 -104 -90 -244 -137 -332 -49 -90 -125 -204 -152 -226 -19 -16 -19 -12 0
109 32 197 48 328 67 569 14 184 3 333 -43 557 -19 92 -80 266 -114 324 -38
65 -102 138 -111 128 -4 -4 3 -37 14 -74 66 -209 77 -287 76 -548 -1 -242 -14
-353 -64 -555 -12 -47 -25 -101 -30 -120 -10 -42 -96 -300 -103 -306 -2 -2 -7
19 -10 48 -13 111 -28 195 -43 243 -64 205 -121 301 -221 375 -58 42 -103 62
-103 45 0 -2 22 -55 50 -118 64 -149 95 -257 114 -405 20 -148 21 -212 4 -212
-7 0 -40 27 -74 58 -119 114 -301 223 -430 256 -80 21 -267 21 -353 1 -90 -22
-196 -80 -266 -148 -64 -63 -66 -61 40 -31 257 75 528 55 720 -53 25 -13 45
-29 45 -34 0 -5 -52 -9 -115 -9 -209 0 -373 -56 -498 -170 -57 -52 -114 -127
-104 -136 3 -4 61 16 129 43 68 28 148 55 178 61 30 6 79 15 108 21 68 14 216
14 301 1 267 -41 316 -52 494 -113 48 -16 87 -32 87 -36 0 -4 -32 -38 -70 -76
-164 -163 -311 -464 -384 -790 -29 -128 -56 -342 -56 -439 0 -53 -3 -96 -6
-96 -9 0 -159 106 -274 194 -375 288 -702 643 -1004 1089 -83 123 -106 163
-100 180 16 53 79 177 174 338 57 96 154 264 218 374 415 722 613 1014 857
1260 108 109 231 210 330 273 119 74 313 153 465 187 41 10 89 21 105 25 62
17 114 11 173 -19z m3587 -16 c50 -14 108 -30 130 -36 22 -6 51 -15 65 -20 14
-4 84 -24 155 -44 72 -20 162 -45 200 -56 39 -10 88 -24 110 -30 22 -6 51 -15
65 -20 14 -4 54 -15 90 -24 36 -9 76 -20 90 -24 41 -15 154 -47 335 -96 94
-26 184 -51 200 -56 17 -5 86 -25 154 -44 123 -34 141 -44 141 -77 0 -28 -13
-28 -106 -2 -153 42 -236 66 -309 86 -38 11 -86 24 -105 28 -19 5 -75 20 -125
35 -75 21 -187 53 -410 115 -16 4 -64 17 -105 28 -128 35 -271 73 -380 103
-58 16 -157 43 -220 60 -63 17 -119 35 -124 40 -6 5 -5 18 2 34 15 32 34 32
147 0z m-60 -155 c66 -17 170 -44 230 -60 61 -16 144 -37 185 -48 41 -11 174
-45 295 -76 121 -31 234 -60 250 -65 44 -12 115 -31 155 -42 19 -5 91 -24 160
-43 69 -18 179 -48 245 -66 66 -18 152 -42 190 -54 66 -20 70 -23 70 -51 0
-36 1 -37 -200 19 -11 3 -74 19 -140 35 -66 17 -187 48 -270 71 -82 22 -226
60 -320 85 -174 45 -207 54 -500 132 -93 25 -186 49 -205 53 -19 5 -60 15 -90
24 -30 8 -93 24 -140 36 -46 11 -88 24 -94 30 -14 14 21 62 42 56 9 -3 71 -19
137 -36z m-161 -120 c4 -5 3 -24 -4 -44 -6 -20 -9 -43 -7 -51 6 -14 58 -30
212 -65 55 -12 152 -35 215 -50 63 -15 135 -31 160 -35 25 -4 59 -11 75 -15
41 -12 161 -41 210 -50 22 -5 94 -20 160 -35 66 -15 136 -30 155 -35 19 -4
114 -26 210 -49 96 -23 185 -44 198 -47 37 -7 32 -20 -55 -134 -126 -164 -355
-324 -546 -381 -57 -17 -88 -19 -190 -16 -145 4 -165 10 -333 83 -112 49 -181
72 -296 98 -26 6 -28 9 -25 61 2 50 -1 57 -33 90 -79 82 -226 140 -381 151
-95 7 -99 8 -93 28 3 12 13 28 20 37 8 8 14 19 14 24 0 7 71 133 183 325 82
140 73 130 110 123 17 -3 36 -9 41 -13z m2451 -238 c126 -78 204 -252 205
-455 0 -102 21 -171 44 -146 7 8 24 54 36 104 24 95 25 219 3 260 -36 67 -80
181 -73 189 5 5 31 2 61 -8 159 -52 245 -270 190 -486 -28 -111 -75 -187 -206
-330 -28 -30 -68 -75 -90 -100 -21 -25 -71 -81 -110 -125 -71 -79 -153 -172
-204 -230 -85 -97 -234 -279 -274 -335 -71 -98 -220 -288 -282 -361 -16 -19
-39 -46 -50 -60 -217 -258 -680 -700 -705 -672 -10 11 7 276 25 403 48 323 72
416 138 513 18 27 148 134 257 212 341 244 361 263 396 392 9 32 24 87 33 123
23 82 74 211 108 270 15 25 61 81 104 125 101 105 114 137 113 280 -1 108 -13
175 -60 342 -14 47 -15 66 -7 74 23 23 61 -1 120 -75 100 -128 102 -132 174
-378 12 -43 26 -78 29 -78 10 0 20 82 20 164 0 90 -21 177 -60 254 -36 72 -39
113 -7 135 29 21 36 21 72 -1z m-8635 -314 c19 -5 77 -17 128 -27 51 -9 93
-20 93 -24 0 -5 -16 -27 -36 -50 -52 -59 -69 -95 -68 -148 1 -55 32 -109 101
-176 55 -52 174 -129 217 -139 17 -4 35 -10 40 -14 6 -4 35 -13 65 -20 30 -7
68 -16 84 -21 16 -5 46 -9 66 -9 20 0 39 -3 43 -6 6 -7 -18 -48 -136 -234 -84
-131 -183 -292 -210 -341 -27 -49 -59 -99 -64 -99 -7 0 -105 212 -152 329 -70
175 -101 265 -153 451 -36 132 -98 452 -98 514 0 35 2 38 23 31 12 -3 38 -11
57 -17z m9453 -4 c110 -32 226 -82 320 -138 76 -45 224 -161 241 -188 18 -29
-3 -33 -32 -6 -98 91 -331 213 -492 258 -25 6 -55 16 -68 21 -13 5 -33 9 -45
9 -31 0 -67 27 -67 51 0 26 31 25 143 -7z m2 -154 c17 -5 62 -19 100 -31 80
-25 186 -75 254 -121 115 -79 203 -158 175 -158 -6 0 -94 59 -104 70 -7 8
-129 82 -165 102 -44 23 -238 87 -309 101 -52 11 -61 16 -64 36 -4 23 -2 24
40 17 23 -4 57 -11 73 -16z m-1257 -67 c3 -26 -2 -35 -25 -50 -139 -88 -221
-215 -322 -499 -24 -66 -51 -129 -60 -140 -44 -52 -210 -184 -320 -254 -103
-65 -134 -76 -336 -121 -27 -7 -67 -20 -88 -31 -36 -18 -43 -18 -184 -3 -80 8
-189 15 -243 15 l-98 0 -28 38 c-15 20 -30 39 -34 42 -33 29 -152 199 -265
380 -160 254 -282 507 -257 532 21 21 233 -80 263 -124 3 -6 9 -42 12 -81 8
-107 10 -110 71 -102 176 21 256 15 351 -26 303 -132 306 -133 430 -149 106
-13 281 3 384 35 209 66 371 203 515 436 l77 124 52 6 c91 11 102 8 105 -28z
m-3883 -7 c71 -27 205 -64 330 -91 41 -9 148 -18 257 -22 102 -3 192 -10 200
-14 21 -14 -27 -45 -114 -74 -92 -30 -235 -34 -328 -10 -128 33 -350 144 -431
216 -32 29 -33 30 -9 26 14 -3 57 -17 95 -31z m3435 -54 c0 -14 -57 -99 -96
-142 -77 -85 -191 -158 -299 -190 -22 -6 -53 -16 -70 -21 -16 -5 -33 -5 -37
-1 -5 5 31 28 79 51 112 55 217 129 323 230 82 77 100 90 100 73z m2705 -41
c72 -33 80 -49 83 -170 3 -93 0 -110 -18 -140 -26 -41 -35 -34 -31 23 6 103
-81 162 -185 124 -53 -19 -52 -38 2 -38 37 0 46 -4 55 -24 17 -37 -13 -76 -58
-76 -117 0 -158 162 -66 266 47 54 143 70 218 35z m-4896 -457 c109 -57 282
-168 323 -206 7 -7 40 -35 73 -63 89 -74 282 -275 293 -304 1 -4 -15 -13 -35
-20 -173 -61 -254 -108 -351 -208 -92 -95 -165 -253 -186 -403 -3 -19 -8 -50
-12 -67 -12 -57 12 -37 85 70 163 239 310 347 566 415 66 18 277 52 323 52 22
0 12 -15 -29 -40 -58 -35 -185 -172 -242 -258 -101 -154 -172 -328 -202 -500
-18 -104 -24 -317 -9 -332 14 -14 65 92 124 255 12 33 34 94 51 136 16 41 29
79 29 84 0 18 75 162 117 225 106 160 268 289 504 404 53 25 104 46 112 46 13
0 10 -14 -15 -82 -105 -289 -167 -760 -155 -1191 l7 -217 -48 -34 c-65 -48
-277 -174 -394 -236 l-98 -51 -87 37 c-379 162 -687 517 -832 959 -63 195 -85
311 -84 455 1 69 6 145 11 170 22 92 36 543 23 735 -14 222 -14 235 1 235 6 0
68 -30 137 -66z m-319 -377 c0 -96 -4 -198 -10 -228 -5 -30 -16 -103 -25 -164
-8 -60 -22 -144 -29 -185 -31 -163 -77 -388 -91 -440 -16 -60 -58 -238 -82
-340 -23 -100 -30 -129 -53 -210 -12 -41 -26 -93 -31 -115 -12 -48 -145 -462
-204 -635 -73 -211 -97 -274 -114 -292 -43 -46 -626 -27 -972 32 -35 6 -91 15
-125 20 -34 5 -68 12 -76 15 -9 4 -53 15 -99 25 -189 41 -421 113 -616 190
-83 33 -95 42 -69 57 20 12 126 175 178 274 53 99 134 282 171 384 23 65 32
93 68 215 19 68 22 69 82 52 81 -22 345 -21 422 2 74 22 279 101 327 127 34
18 98 1 98 -26 0 -4 -28 -51 -63 -104 -35 -53 -76 -118 -93 -144 -86 -143 -85
-139 -81 -197 5 -92 59 -142 152 -144 65 -1 109 30 155 106 17 29 35 60 40 68
5 8 36 58 68 110 l58 94 104 16 c58 9 119 24 137 33 40 22 70 63 82 116 7 32
23 56 65 96 30 29 66 75 79 102 14 26 50 73 81 104 63 64 100 139 111 230 6
47 14 63 51 104 32 36 45 60 50 93 9 59 -2 165 -22 217 l-16 43 68 118 c37 66
81 144 97 174 16 30 42 74 57 97 16 22 31 51 35 62 3 12 13 21 21 21 12 0 14
-30 14 -173z m-706 -178 c195 -35 256 -70 304 -171 17 -35 33 -86 37 -113 5
-43 3 -55 -15 -78 -29 -37 -45 -34 -76 16 -57 91 -103 124 -214 151 -92 22
-287 28 -264 7 5 -4 52 -23 104 -40 188 -64 261 -126 307 -261 27 -77 29 -127
7 -158 -21 -31 -38 -28 -71 14 -56 73 -132 141 -192 173 -61 32 -177 68 -187
58 -3 -3 29 -38 71 -78 102 -97 169 -188 194 -266 53 -162 -9 -201 -109 -69
-71 94 -187 168 -313 202 -62 16 -83 4 -40 -23 64 -40 172 -136 217 -192 83
-107 126 -233 91 -271 -37 -40 -81 -17 -160 83 -63 80 -216 167 -293 167 -42
0 -58 -6 -207 -75 -89 -41 -311 -80 -395 -70 -74 9 -152 28 -231 56 l-67 23
-118 -17 c-245 -36 -541 -67 -604 -65 l-65 3 2 30 c3 43 60 208 98 285 66 134
143 230 222 277 42 24 47 25 181 20 75 -3 190 -12 256 -20 236 -30 439 27 751
210 22 12 63 35 90 49 28 14 70 37 95 50 101 57 140 76 187 88 60 17 325 20
407 5z m-1834 -1210 c0 -7 -4 -28 -9 -48 -5 -20 -15 -61 -21 -91 -14 -62 -33
-127 -63 -215 -42 -122 -165 -333 -231 -394 l-25 -24 -48 25 c-26 14 -52 33
-58 42 -8 13 19 75 133 299 181 359 197 386 242 402 45 16 80 18 80 4z m2579
-63 c79 -211 248 -456 447 -646 86 -82 246 -200 272 -200 28 0 9 -22 -35 -41
-63 -27 -289 -102 -388 -129 -44 -11 -93 -25 -110 -30 -149 -43 -630 -118
-648 -101 -5 5 0 28 11 52 25 57 35 81 88 214 25 61 49 119 54 130 16 34 137
367 155 425 39 128 57 190 81 280 14 52 28 98 31 103 9 14 22 -3 42 -57z"/>
<path d="M6155 7874 c-110 -148 -264 -214 -500 -214 -115 0 -271 -27 -362 -63
-163 -65 -288 -206 -300 -338 -7 -68 4 -76 38 -26 38 55 115 124 187 166 115
69 226 97 469 121 161 15 279 54 353 117 43 36 104 129 130 200 27 72 22 85
-15 37z"/>
<path d="M6815 7131 c-16 -5 -55 -14 -85 -20 -162 -37 -153 -50 41 -57 79 -3
175 -12 212 -21 67 -15 70 -15 89 4 17 18 18 24 8 44 -25 49 -48 59 -145 58
-49 0 -103 -4 -120 -8z"/>
<path d="M6866 6899 c-2 -8 -7 -35 -11 -61 -6 -45 -7 -47 -46 -53 -69 -12
-186 8 -281 48 -21 9 -38 13 -38 9 0 -11 100 -105 135 -128 61 -39 108 -54
165 -54 135 0 165 44 120 176 -23 65 -37 85 -44 63z"/>
</g>
</svg>
